# xmcd
#
# Track frame offsets:
#	150
#	13055
#	28775
#	39082
#	50368
#	68245
#	81624
#	89096
#	106107
#	119644
#	130051
#	149098
#	165713
#	178230
#	191156
#	205121
#	219150
#	232164
#	242055
#	254129
#	264608
#
# Disc length: 3693 seconds
#
# Revision: 1
# Processed by: cddbd v1.5.2PL0 Copyright (c) Steve Scherf et al.
# Submitted via: EasyCDDAExtractor 10.0.2.1
#
DISCID=450e6b15
DTITLE=Waylon Jennings-Jessi Colter-Tompall Glaser-Willie Nelson - Wanted! The
DTITLE=Outlaws
DYEAR=1996
DGENRE=Country
TTITLE0=My Heroes Have Always Been Cowboys (with Waylon Jennings)
TTITLE1=Honky Tonk Heroes (Like Me) (with Waylon Jennings)
TTITLE2=I'm Looking For Blue Eyes (with Jessi Colter)
TTITLE3=You Mean To Say (with Jessi Colter)
TTITLE4=Suspicious Minds (with Waylon Jennings and Jessi Colter)
TTITLE5=A Good Hearted Woman (with Waylon Jennings and Willie Nelson)
TTITLE6=Heaven and Hell (with Waylon Jennings and Willie Nelson)
TTITLE7=Me And Paul (with Willie Nelson)
TTITLE8=Yesterday's Wine (with Willie Nelson)
TTITLE9=Put Another Log On The Fire (with Tompall Glasser and Bsnd)
TTITLE10=T For Texas (with Tompall Glasser and Band)
TTITLE11=Slow Movin' Outlaws (with Waylon Jennings)
TTITLE12=(I'm A) Ramblin' Man (with Waylon Jennings)
TTITLE13=If She's Where You Like Livin' (with Jessi Colter)
TTITLE14=It's Not Easy (with Jessi Colter)
TTITLE15=Why You Been Gone So Long (with Jessi Colter)
TTITLE16=Under Your Spell Again (with Waylon Jennings and Jessi Colter)
TTITLE17=I Ain't The One (with Waylon Jennings and Jessi Colter)
TTITLE18=You Left A Long Long Time Ago (with Willie Nelson)
TTITLE19=Healing Hands Of Time (with Willie Nelson)
TTITLE20=Nowhere Road (with Willie Nelson and Waylon Jennings)
EXTD=
EXTT0=
EXTT1=
EXTT2=
EXTT3=
EXTT4=
EXTT5=
EXTT6=
EXTT7=
EXTT8=
EXTT9=
EXTT10=
EXTT11=
EXTT12=
EXTT13=
EXTT14=
EXTT15=
EXTT16=
EXTT17=
EXTT18=
EXTT19=
EXTT20=
PLAYORDER=
